# xmcd CD database file
# Copyright (C) 1993-1998 Ti Kan
#
# Track frame offsets:
#  200
#  22292
#  50290
#  69062
#  87025
#  109262
#  132812
#  146612
#  170987
#  193037
#
# Disc length: 2967 seconds
#
# Revision: 1
# Processed by: cddbd v1.4b41PL1 Copyright (c) Steve Scherf et al.
# Submitted via: CDWizzard Release:4.35
#
DISCID=8b0b950a
DTITLE=Bill Doggett - The Right Choice
DYEAR=1900
DGENRE=
TTITLE0=Fur Piece
TTITLE1=Rough Neck
TTITLE2=Warm Breezes
TTITLE3=Mush Mouth
TTITLE4=Du-Du
TTITLE5=Things Ain't What Thet Used To Be
TTITLE6=I'm Ready
TTITLE7=The Wright Choice
TTITLE8=Honky Tonk (Parts 1 and 2)
TTITLE9=Just A Blues
EXTD=
EXTT0=
EXTT1=
EXTT2=
EXTT3=
EXTT4=
EXTT5=
EXTT6=
EXTT7=
EXTT8=
EXTT9=
PLAYORDER=
